<svg xmlns="http://www.w3.org/2000/svg" xmlns:xlink="http://www.w3.org/1999/xlink" viewBox="30 250 700 120" preserveAspectRatio="xMidYMid meet" role="img" aria-label="AIHLPR"><defs><clipPath id="67f7021919"><path d="M 177 259.640625 L 201 259.640625 L 201 283 L 177 283 Z M 177 259.640625 " clip-rule="nonzero"/></clipPath><clipPath id="f4b5ac6c4f"><path d="M 46 259.640625 L 138 259.640625 L 138 360 L 46 360 Z M 46 259.640625 " clip-rule="nonzero"/></clipPath><clipPath id="b790b887c5"><path d="M 296 259.640625 L 388 259.640625 L 388 360 L 296 360 Z M 296 259.640625 " clip-rule="nonzero"/></clipPath><clipPath id="0b60cc1444"><path d="M 639 260 L 721.746094 260 L 721.746094 360 L 639 360 Z M 639 260 " clip-rule="nonzero"/></clipPath><clipPath id="6e13535cf4"><path d="M 364 259.640625 L 388 259.640625 L 388 283 L 364 283 Z M 364 259.640625 " clip-rule="nonzero"/></clipPath><clipPath id="e147ddbc9e"><path d="M 697 339 L 721 339 L 721 362.390625 L 697 362.390625 Z M 697 339 " clip-rule="nonzero"/></clipPath></defs><g clip-path="url(#67f7021919)"><path fill="#e34ca8" d="M 200.375 271.054688 C 200.375 271.804688 200.300781 272.546875 200.152344 273.28125 C 200.007812 274.015625 199.789062 274.730469 199.5 275.421875 C 199.214844 276.117188 198.863281 276.773438 198.445312 277.398438 C 198.027344 278.019531 197.550781 278.597656 197.019531 279.125 C 196.488281 279.65625 195.910156 280.128906 195.285156 280.546875 C 194.660156 280.960938 194 281.316406 193.304688 281.601562 C 192.609375 281.886719 191.894531 282.105469 191.15625 282.25 C 190.421875 282.398438 189.675781 282.46875 188.925781 282.46875 C 188.171875 282.46875 187.425781 282.398438 186.691406 282.25 C 185.953125 282.105469 185.238281 281.886719 184.542969 281.601562 C 183.847656 281.316406 183.1875 280.960938 182.5625 280.546875 C 181.9375 280.128906 181.359375 279.65625 180.828125 279.125 C 180.296875 278.597656 179.820312 278.019531 179.402344 277.398438 C 178.988281 276.773438 178.632812 276.117188 178.347656 275.421875 C 178.058594 274.730469 177.839844 274.015625 177.695312 273.28125 C 177.546875 272.546875 177.476562 271.804688 177.476562 271.054688 C 177.476562 270.304688 177.546875 269.5625 177.695312 268.828125 C 177.839844 268.09375 178.058594 267.378906 178.347656 266.6875 C 178.632812 265.992188 178.988281 265.335938 179.402344 264.710938 C 179.820312 264.089844 180.296875 263.511719 180.828125 262.984375 C 181.359375 262.453125 181.9375 261.980469 182.5625 261.5625 C 183.1875 261.144531 183.847656 260.792969 184.542969 260.507812 C 185.238281 260.222656 185.953125 260.003906 186.691406 259.859375 C 187.425781 259.710938 188.171875 259.640625 188.925781 259.640625 C 189.675781 259.640625 190.421875 259.710938 191.15625 259.859375 C 191.894531 260.003906 192.609375 260.222656 193.304688 260.507812 C 194 260.792969 194.660156 261.144531 195.285156 261.5625 C 195.910156 261.980469 196.488281 262.453125 197.019531 262.984375 C 197.550781 263.511719 198.027344 264.089844 198.445312 264.710938 C 198.863281 265.335938 199.214844 265.992188 199.5 266.6875 C 199.789062 267.378906 200.007812 268.09375 200.152344 268.828125 C 200.300781 269.5625 200.375 270.304688 200.375 271.054688 Z M 200.375 271.054688 "/></g><g clip-path="url(#f4b5ac6c4f)"><path fill="currentColor" d="M 67.988281 338.890625 L 77.875 331.8125 L 70.351562 349.4375 C 68.679688 353.140625 66.96875 355.820312 65.207031 357.484375 C 63.441406 359.152344 60.75 359.984375 57.132812 359.984375 C 54.257812 359.984375 51.84375 359.308594 49.894531 357.96875 C 47.941406 356.632812 46.738281 354.777344 46.277344 352.417969 C 45.808594 350.0625 46.226562 347.402344 47.527344 344.4375 L 82.179688 270.042969 C 83.855469 266.4375 85.914062 263.800781 88.375 262.136719 C 90.832031 260.46875 93.640625 259.640625 96.792969 259.640625 C 99.949219 259.640625 102.707031 260.46875 105.070312 262.136719 C 107.4375 263.800781 109.503906 266.4375 111.265625 270.042969 L 136.15625 323.460938 C 139.476562 330.589844 134.273438 338.753906 126.390625 338.761719 L 67.980469 338.875 Z M 96.523438 287.539062 L 80.378906 325.980469 L 76.480469 319.320312 L 116.992188 319.320312 L 113.09375 325.980469 L 96.808594 287.539062 Z M 96.523438 287.539062 "/></g><path fill="currentColor" d="M 188.785156 359.984375 C 184.886719 359.984375 181.875 358.824219 179.738281 356.515625 C 177.605469 354.199219 176.535156 350.875 176.535156 346.523438 L 176.535156 302.664062 C 176.535156 298.320312 177.597656 294.988281 179.738281 292.671875 C 181.875 290.355469 184.886719 289.195312 188.785156 289.195312 C 192.679688 289.195312 195.859375 290.355469 198.042969 292.671875 C 200.226562 294.988281 201.3125 298.3125 201.3125 302.664062 L 201.3125 346.523438 C 201.3125 350.875 200.242188 354.199219 198.109375 356.515625 C 195.976562 358.824219 192.859375 359.984375 188.785156 359.984375 Z M 188.785156 359.984375 "/><g clip-path="url(#b790b887c5)"><path fill="currentColor" d="M 375.449219 285.140625 C 382.226562 285.140625 387.722656 290.617188 387.722656 297.375 L 387.722656 346.941406 C 387.722656 351.105469 386.625 354.324219 384.453125 356.582031 C 382.269531 358.847656 379.140625 359.984375 375.054688 359.984375 C 370.96875 359.984375 367.699219 358.847656 365.515625 356.582031 C 363.332031 354.316406 362.246094 351.097656 362.246094 346.941406 L 362.246094 319.601562 L 321.734375 319.601562 L 321.734375 346.941406 C 321.734375 351.105469 320.664062 354.324219 318.53125 356.582031 C 316.398438 358.847656 313.195312 359.984375 308.929688 359.984375 C 304.660156 359.984375 301.6875 358.847656 299.464844 356.582031 C 297.238281 354.316406 296.121094 351.097656 296.121094 346.941406 L 296.121094 272.6875 C 296.121094 268.433594 297.230469 265.191406 299.464844 262.972656 C 301.6875 260.753906 304.84375 259.640625 308.929688 259.640625 C 313.011719 259.640625 316.285156 260.746094 318.464844 262.972656 C 320.648438 265.191406 321.734375 268.433594 321.734375 272.6875 L 321.734375 298.640625 L 362.246094 298.640625 L 362.246094 297.375 C 362.246094 290.617188 367.738281 285.140625 374.519531 285.140625 Z M 375.449219 285.140625 "/></g><path fill="currentColor" d="M 466.441406 348.148438 C 466.425781 354.003906 461.664062 358.734375 455.792969 358.734375 L 436.15625 358.734375 C 432.070312 358.734375 428.890625 357.601562 426.617188 355.335938 C 424.34375 353.066406 423.207031 349.898438 423.207031 345.824219 L 423.207031 273.65625 C 423.207031 269.496094 424.320312 266.300781 426.550781 264.082031 C 428.773438 261.863281 431.929688 260.746094 436.015625 260.746094 C 440.101562 260.746094 443.371094 261.855469 445.554688 264.082031 C 447.738281 266.300781 448.824219 269.496094 448.824219 273.65625 L 448.824219 337.503906 L 455.792969 337.503906 C 461.683594 337.503906 466.460938 342.277344 466.441406 348.15625 Z M 466.441406 348.148438 "/><path fill="currentColor" d="M 578.210938 313.375 C 576.742188 309.292969 577.527344 304.636719 580.53125 301.507812 C 582.617188 299.347656 583.703125 296.382812 583.703125 292.949219 C 583.703125 288.695312 582.402344 285.550781 579.808594 283.511719 C 577.214844 281.476562 573.5 280.457031 568.671875 280.457031 L 551.546875 280.457031 L 551.546875 347.082031 C 551.546875 351.152344 550.476562 354.324219 548.34375 356.589844 C 546.210938 358.855469 543.003906 359.992188 538.738281 359.992188 C 534.472656 359.992188 531.5 358.855469 529.273438 356.589844 C 527.050781 354.324219 525.929688 351.152344 525.929688 347.082031 L 525.929688 273.796875 C 525.929688 269.632812 527.066406 266.4375 529.339844 264.222656 C 531.613281 262.003906 534.792969 260.886719 538.878906 260.886719 L 573.121094 260.886719 C 584.253906 260.886719 592.863281 263.730469 598.941406 269.421875 C 605.019531 275.113281 608.058594 282.953125 608.058594 292.941406 C 608.058594 302.929688 605.019531 310.78125 598.941406 316.464844 C 597.921875 317.414062 596.832031 318.292969 595.664062 319.089844 C 589.402344 323.371094 580.753906 320.496094 578.191406 313.367188 Z M 578.210938 313.375 "/><g clip-path="url(#0b60cc1444)"><path fill="currentColor" d="M 697.859375 337.511719 C 695.554688 337.503906 693.261719 337.117188 691.136719 336.230469 C 687.050781 334.539062 684.976562 331.34375 682.949219 327.640625 C 681.839844 325.605469 680.421875 324.191406 678.707031 323.410156 C 676.988281 322.621094 675.019531 322.226562 672.792969 322.226562 L 665.140625 322.226562 L 665.140625 347.070312 C 665.140625 351.144531 664.070312 354.316406 661.9375 356.582031 C 659.804688 358.847656 656.601562 359.984375 652.335938 359.984375 C 648.066406 359.984375 645.09375 358.847656 642.871094 356.582031 C 640.644531 354.316406 639.527344 351.144531 639.527344 347.070312 L 639.527344 273.796875 C 639.527344 269.632812 640.664062 266.4375 642.9375 264.222656 C 645.210938 262.003906 648.386719 260.886719 652.472656 260.886719 L 686.714844 260.886719 C 697.851562 260.886719 706.457031 263.597656 712.539062 269.007812 C 718.617188 274.421875 721.65625 281.945312 721.65625 291.5625 C 721.65625 297.761719 720.289062 303.148438 717.546875 307.734375 C 714.8125 312.316406 710.867188 315.832031 705.710938 318.277344 C 700.5625 320.734375 694.226562 321.957031 686.707031 321.957031 L 687.820312 319.460938 L 694.5 319.460938 C 700.109375 319.460938 708.742188 321.753906 709.308594 328.503906 C 709.546875 331.296875 708.140625 334.167969 705.785156 335.707031 C 704.292969 336.675781 702.511719 337.117188 700.75 337.339844 C 699.785156 337.464844 698.816406 337.527344 697.851562 337.519531 Z M 665.140625 304.191406 L 682.125 304.191406 C 687.042969 304.191406 690.800781 303.222656 693.402344 301.277344 C 695.996094 299.332031 697.300781 296.324219 697.300781 292.261719 C 697.300781 288.195312 695.996094 285.433594 693.402344 283.449219 C 690.808594 281.460938 687.042969 280.464844 682.125 280.464844 L 665.140625 280.464844 L 665.140625 304.203125 Z M 665.140625 304.191406 "/></g><path fill="#f245a3" d="M 149.871094 348.8125 C 149.871094 349.546875 149.800781 350.273438 149.65625 350.992188 C 149.511719 351.714844 149.300781 352.414062 149.019531 353.089844 C 148.738281 353.769531 148.390625 354.414062 147.984375 355.023438 C 147.574219 355.632812 147.109375 356.199219 146.589844 356.71875 C 146.070312 357.234375 145.503906 357.699219 144.890625 358.105469 C 144.277344 358.515625 143.632812 358.859375 142.953125 359.140625 C 142.273438 359.421875 141.570312 359.632812 140.847656 359.777344 C 140.128906 359.917969 139.398438 359.992188 138.664062 359.992188 C 137.925781 359.992188 137.195312 359.917969 136.476562 359.777344 C 135.753906 359.632812 135.050781 359.421875 134.371094 359.140625 C 133.691406 358.859375 133.046875 358.515625 132.433594 358.105469 C 131.820312 357.699219 131.253906 357.234375 130.734375 356.71875 C 130.214844 356.199219 129.75 355.632812 129.339844 355.023438 C 128.933594 354.414062 128.585938 353.769531 128.304688 353.089844 C 128.023438 352.414062 127.8125 351.714844 127.667969 350.992188 C 127.523438 350.273438 127.453125 349.546875 127.453125 348.8125 C 127.453125 348.078125 127.523438 347.351562 127.667969 346.632812 C 127.8125 345.914062 128.023438 345.214844 128.304688 344.535156 C 128.585938 343.859375 128.933594 343.214844 129.339844 342.601562 C 129.75 341.992188 130.214844 341.429688 130.734375 340.910156 C 131.253906 340.390625 131.820312 339.925781 132.433594 339.519531 C 133.046875 339.113281 133.691406 338.765625 134.371094 338.488281 C 135.050781 338.207031 135.753906 337.992188 136.476562 337.851562 C 137.195312 337.707031 137.925781 337.636719 138.664062 337.636719 C 139.398438 337.636719 140.128906 337.707031 140.847656 337.851562 C 141.570312 337.992188 142.273438 338.207031 142.953125 338.488281 C 143.632812 338.765625 144.277344 339.113281 144.890625 339.519531 C 145.503906 339.925781 146.070312 340.390625 146.589844 340.910156 C 147.109375 341.429688 147.574219 341.992188 147.984375 342.601562 C 148.390625 343.214844 148.738281 343.859375 149.019531 344.535156 C 149.300781 345.214844 149.511719 345.914062 149.65625 346.632812 C 149.800781 347.351562 149.871094 348.078125 149.871094 348.8125 Z M 149.871094 348.8125 "/><g clip-path="url(#6e13535cf4)"><path fill="#b066bc" d="M 387.164062 271.054688 C 387.164062 271.804688 387.089844 272.546875 386.941406 273.28125 C 386.796875 274.015625 386.578125 274.730469 386.289062 275.421875 C 386.003906 276.117188 385.648438 276.773438 385.234375 277.398438 C 384.816406 278.019531 384.339844 278.597656 383.808594 279.125 C 383.277344 279.65625 382.699219 280.128906 382.074219 280.546875 C 381.449219 280.960938 380.789062 281.316406 380.09375 281.601562 C 379.398438 281.886719 378.683594 282.105469 377.945312 282.25 C 377.210938 282.398438 376.464844 282.46875 375.714844 282.46875 C 374.960938 282.46875 374.214844 282.398438 373.480469 282.25 C 372.742188 282.105469 372.027344 281.886719 371.332031 281.601562 C 370.636719 281.316406 369.976562 280.960938 369.351562 280.546875 C 368.726562 280.128906 368.148438 279.65625 367.617188 279.125 C 367.085938 278.597656 366.609375 278.019531 366.191406 277.398438 C 365.777344 276.773438 365.421875 276.117188 365.136719 275.421875 C 364.847656 274.730469 364.628906 274.015625 364.484375 273.28125 C 364.335938 272.546875 364.261719 271.804688 364.261719 271.054688 C 364.261719 270.304688 364.335938 269.5625 364.484375 268.828125 C 364.628906 268.09375 364.847656 267.378906 365.136719 266.6875 C 365.421875 265.992188 365.777344 265.335938 366.191406 264.710938 C 366.609375 264.089844 367.085938 263.511719 367.617188 262.984375 C 368.148438 262.453125 368.726562 261.980469 369.351562 261.5625 C 369.976562 261.144531 370.636719 260.792969 371.332031 260.507812 C 372.027344 260.222656 372.742188 260.003906 373.480469 259.859375 C 374.214844 259.710938 374.960938 259.640625 375.714844 259.640625 C 376.464844 259.640625 377.210938 259.710938 377.945312 259.859375 C 378.683594 260.003906 379.398438 260.222656 380.09375 260.507812 C 380.789062 260.792969 381.449219 261.144531 382.074219 261.5625 C 382.699219 261.980469 383.277344 262.453125 383.808594 262.984375 C 384.339844 263.511719 384.816406 264.089844 385.234375 264.710938 C 385.648438 265.335938 386.003906 265.992188 386.289062 266.6875 C 386.578125 267.378906 386.796875 268.09375 386.941406 268.828125 C 387.089844 269.5625 387.164062 270.304688 387.164062 271.054688 Z M 387.164062 271.054688 "/></g><path fill="#717cc5" d="M 494.175781 347.320312 C 494.175781 348.066406 494.101562 348.808594 493.957031 349.546875 C 493.808594 350.28125 493.59375 350.996094 493.304688 351.6875 C 493.015625 352.378906 492.664062 353.039062 492.246094 353.660156 C 491.828125 354.285156 491.355469 354.859375 490.824219 355.390625 C 490.292969 355.921875 489.714844 356.394531 489.089844 356.808594 C 488.464844 357.226562 487.804688 357.578125 487.109375 357.863281 C 486.414062 358.152344 485.699219 358.367188 484.960938 358.515625 C 484.222656 358.660156 483.480469 358.734375 482.726562 358.734375 C 481.976562 358.734375 481.230469 358.660156 480.492188 358.515625 C 479.757812 358.367188 479.039062 358.152344 478.34375 357.863281 C 477.652344 357.578125 476.992188 357.226562 476.367188 356.808594 C 475.742188 356.394531 475.164062 355.921875 474.632812 355.390625 C 474.101562 354.859375 473.625 354.285156 473.207031 353.660156 C 472.789062 353.039062 472.4375 352.378906 472.148438 351.6875 C 471.863281 350.996094 471.644531 350.28125 471.496094 349.546875 C 471.351562 348.808594 471.277344 348.066406 471.277344 347.320312 C 471.277344 346.570312 471.351562 345.828125 471.496094 345.089844 C 471.644531 344.355469 471.863281 343.640625 472.148438 342.949219 C 472.4375 342.257812 472.789062 341.597656 473.207031 340.976562 C 473.625 340.351562 474.101562 339.777344 474.632812 339.246094 C 475.164062 338.714844 475.742188 338.242188 476.367188 337.828125 C 476.992188 337.410156 477.652344 337.058594 478.34375 336.773438 C 479.039062 336.484375 479.757812 336.269531 480.492188 336.121094 C 481.230469 335.976562 481.976562 335.902344 482.726562 335.902344 C 483.480469 335.902344 484.222656 335.976562 484.960938 336.121094 C 485.699219 336.269531 486.414062 336.484375 487.109375 336.773438 C 487.804688 337.058594 488.464844 337.410156 489.089844 337.828125 C 489.714844 338.242188 490.292969 338.714844 490.824219 339.246094 C 491.355469 339.777344 491.828125 340.351562 492.246094 340.976562 C 492.664062 341.597656 493.015625 342.257812 493.304688 342.949219 C 493.59375 343.640625 493.808594 344.355469 493.957031 345.089844 C 494.101562 345.828125 494.175781 346.570312 494.175781 347.320312 Z M 494.175781 347.320312 "/><g clip-path="url(#e147ddbc9e)"><path fill="#1794f5" d="M 720.199219 350.972656 C 720.199219 351.722656 720.125 352.464844 719.976562 353.199219 C 719.832031 353.933594 719.613281 354.648438 719.328125 355.339844 C 719.039062 356.035156 718.6875 356.691406 718.269531 357.316406 C 717.851562 357.9375 717.375 358.515625 716.84375 359.046875 C 716.3125 359.574219 715.734375 360.046875 715.109375 360.464844 C 714.484375 360.882812 713.824219 361.234375 713.128906 361.519531 C 712.433594 361.808594 711.71875 362.023438 710.980469 362.167969 C 710.246094 362.316406 709.5 362.390625 708.75 362.390625 C 707.996094 362.390625 707.253906 362.316406 706.515625 362.167969 C 705.777344 362.023438 705.0625 361.808594 704.367188 361.519531 C 703.671875 361.234375 703.011719 360.882812 702.386719 360.464844 C 701.761719 360.046875 701.183594 359.574219 700.652344 359.046875 C 700.121094 358.515625 699.648438 357.9375 699.230469 357.316406 C 698.8125 356.691406 698.457031 356.035156 698.171875 355.339844 C 697.882812 354.648438 697.664062 353.933594 697.519531 353.199219 C 697.371094 352.464844 697.300781 351.722656 697.300781 350.972656 C 697.300781 350.222656 697.371094 349.480469 697.519531 348.746094 C 697.664062 348.011719 697.882812 347.296875 698.171875 346.605469 C 698.457031 345.910156 698.8125 345.253906 699.230469 344.628906 C 699.648438 344.007812 700.121094 343.429688 700.652344 342.902344 C 701.183594 342.371094 701.761719 341.898438 702.386719 341.480469 C 703.011719 341.066406 703.671875 340.714844 704.367188 340.425781 C 705.0625 340.140625 705.777344 339.921875 706.515625 339.777344 C 707.253906 339.628906 707.996094 339.558594 708.75 339.558594 C 709.5 339.558594 710.246094 339.628906 710.980469 339.777344 C 711.71875 339.921875 712.433594 340.140625 713.128906 340.425781 C 713.824219 340.714844 714.484375 341.066406 715.109375 341.480469 C 715.734375 341.898438 716.3125 342.371094 716.84375 342.902344 C 717.375 343.429688 717.851562 344.007812 718.269531 344.628906 C 718.6875 345.253906 719.039062 345.910156 719.328125 346.605469 C 719.613281 347.296875 719.832031 348.011719 719.976562 348.746094 C 720.125 349.480469 720.199219 350.222656 720.199219 350.972656 Z M 720.199219 350.972656 "/></g><path fill="#4586df" d="M 577.179688 319.847656 C 577.179688 320.597656 577.105469 321.339844 576.960938 322.074219 C 576.8125 322.808594 576.597656 323.523438 576.308594 324.214844 C 576.019531 324.90625 575.667969 325.566406 575.25 326.1875 C 574.832031 326.8125 574.359375 327.390625 573.828125 327.917969 C 573.296875 328.449219 572.714844 328.921875 572.089844 329.339844 C 571.464844 329.753906 570.808594 330.105469 570.113281 330.394531 C 569.417969 330.679688 568.703125 330.898438 567.964844 331.042969 C 567.226562 331.1875 566.484375 331.261719 565.730469 331.261719 C 564.980469 331.261719 564.234375 331.1875 563.496094 331.042969 C 562.757812 330.898438 562.042969 330.679688 561.347656 330.394531 C 560.65625 330.105469 559.996094 329.753906 559.371094 329.339844 C 558.746094 328.921875 558.167969 328.449219 557.636719 327.917969 C 557.101562 327.390625 556.628906 326.8125 556.210938 326.1875 C 555.792969 325.566406 555.441406 324.90625 555.152344 324.214844 C 554.867188 323.523438 554.648438 322.808594 554.5 322.074219 C 554.355469 321.339844 554.28125 320.597656 554.28125 319.847656 C 554.28125 319.097656 554.355469 318.355469 554.5 317.621094 C 554.648438 316.882812 554.867188 316.171875 555.152344 315.476562 C 555.441406 314.785156 555.792969 314.128906 556.210938 313.503906 C 556.628906 312.882812 557.101562 312.304688 557.636719 311.773438 C 558.167969 311.246094 558.746094 310.769531 559.371094 310.355469 C 559.996094 309.9375 560.65625 309.585938 561.347656 309.300781 C 562.042969 309.011719 562.757812 308.796875 563.496094 308.648438 C 564.234375 308.503906 564.980469 308.429688 565.730469 308.429688 C 566.484375 308.429688 567.226562 308.503906 567.964844 308.648438 C 568.703125 308.796875 569.417969 309.011719 570.113281 309.300781 C 570.808594 309.585938 571.464844 309.9375 572.089844 310.355469 C 572.714844 310.769531 573.296875 311.246094 573.828125 311.773438 C 574.359375 312.304688 574.832031 312.882812 575.25 313.503906 C 575.667969 314.128906 576.019531 314.785156 576.308594 315.476562 C 576.597656 316.171875 576.8125 316.882812 576.960938 317.621094 C 577.105469 318.355469 577.179688 319.097656 577.179688 319.847656 Z M 577.179688 319.847656 "/></svg>
